<?xml version="1.0"?>
<svg xmlns="http://www.w3.org/2000/svg" xmlns:xlink="http://www.w3.org/1999/xlink" version="1.1" width="420px" height="420px" viewBox="0 0 420 420"><rect x="0" y="0" width="420" height="420" fill="#ffffff" fill-opacity="1"/><defs><rect id="qr_block" width="13" height="13" fill="#000000" fill-opacity="1"/></defs><use x="21" y="21" xlink:href="#qr_block"/><use x="34" y="21" xlink:href="#qr_block"/><use x="47" y="21" xlink:href="#qr_block"/><use x="60" y="21" xlink:href="#qr_block"/><use x="73" y="21" xlink:href="#qr_block"/><use x="86" y="21" xlink:href="#qr_block"/><use x="99" y="21" xlink:href="#qr_block"/><use x="125" y="21" xlink:href="#qr_block"/><use x="151" y="21" xlink:href="#qr_block"/><use x="177" y="21" xlink:href="#qr_block"/><use x="190" y="21" xlink:href="#qr_block"/><use x="216" y="21" xlink:href="#qr_block"/><use x="281" y="21" xlink:href="#qr_block"/><use x="307" y="21" xlink:href="#qr_block"/><use x="320" y="21" xlink:href="#qr_block"/><use x="333" y="21" xlink:href="#qr_block"/><use x="346" y="21" xlink:href="#qr_block"/><use x="359" y="21" xlink:href="#qr_block"/><use x="372" y="21" xlink:href="#qr_block"/><use x="385" y="21" xlink:href="#qr_block"/><use x="21" y="34" xlink:href="#qr_block"/><use x="99" y="34" xlink:href="#qr_block"/><use x="138" y="34" xlink:href="#qr_block"/><use x="151" y="34" xlink:href="#qr_block"/><use x="164" y="34" xlink:href="#qr_block"/><use x="177" y="34" xlink:href="#qr_block"/><use x="190" y="34" xlink:href="#qr_block"/><use x="268" y="34" xlink:href="#qr_block"/><use x="281" y="34" xlink:href="#qr_block"/><use x="307" y="34" xlink:href="#qr_block"/><use x="385" y="34" xlink:href="#qr_block"/><use x="21" y="47" xlink:href="#qr_block"/><use x="47" y="47" xlink:href="#qr_block"/><use x="60" y="47" xlink:href="#qr_block"/><use x="73" y="47" xlink:href="#qr_block"/><use x="99" y="47" xlink:href="#qr_block"/><use x="125" y="47" xlink:href="#qr_block"/><use x="138" y="47" xlink:href="#qr_block"/><use x="151" y="47" xlink:href="#qr_block"/><use x="229" y="47" xlink:href="#qr_block"/><use x="242" y="47" xlink:href="#qr_block"/><use x="281" y="47" xlink:href="#qr_block"/><use x="307" y="47" xlink:href="#qr_block"/><use x="333" y="47" xlink:href="#qr_block"/><use x="346" y="47" xlink:href="#qr_block"/><use x="359" y="47" xlink:href="#qr_block"/><use x="385" y="47" xlink:href="#qr_block"/><use x="21" y="60" xlink:href="#qr_block"/><use x="47" y="60" xlink:href="#qr_block"/><use x="60" y="60" xlink:href="#qr_block"/><use x="73" y="60" xlink:href="#qr_block"/><use x="99" y="60" xlink:href="#qr_block"/><use x="125" y="60" xlink:href="#qr_block"/><use x="138" y="60" xlink:href="#qr_block"/><use x="151" y="60" xlink:href="#qr_block"/><use x="177" y="60" xlink:href="#qr_block"/><use x="203" y="60" xlink:href="#qr_block"/><use x="216" y="60" xlink:href="#qr_block"/><use x="229" y="60" xlink:href="#qr_block"/><use x="242" y="60" xlink:href="#qr_block"/><use x="281" y="60" xlink:href="#qr_block"/><use x="307" y="60" xlink:href="#qr_block"/><use x="333" y="60" xlink:href="#qr_block"/><use x="346" y="60" xlink:href="#qr_block"/><use x="359" y="60" xlink:href="#qr_block"/><use x="385" y="60" xlink:href="#qr_block"/><use x="21" y="73" xlink:href="#qr_block"/><use x="47" y="73" xlink:href="#qr_block"/><use x="60" y="73" xlink:href="#qr_block"/><use x="73" y="73" xlink:href="#qr_block"/><use x="99" y="73" xlink:href="#qr_block"/><use x="125" y="73" xlink:href="#qr_block"/><use x="164" y="73" xlink:href="#qr_block"/><use x="177" y="73" xlink:href="#qr_block"/><use x="203" y="73" xlink:href="#qr_block"/><use x="216" y="73" xlink:href="#qr_block"/><use x="229" y="73" xlink:href="#qr_block"/><use x="242" y="73" xlink:href="#qr_block"/><use x="281" y="73" xlink:href="#qr_block"/><use x="307" y="73" xlink:href="#qr_block"/><use x="333" y="73" xlink:href="#qr_block"/><use x="346" y="73" xlink:href="#qr_block"/><use x="359" y="73" xlink:href="#qr_block"/><use x="385" y="73" xlink:href="#qr_block"/><use x="21" y="86" xlink:href="#qr_block"/><use x="99" y="86" xlink:href="#qr_block"/><use x="151" y="86" xlink:href="#qr_block"/><use x="164" y="86" xlink:href="#qr_block"/><use x="190" y="86" xlink:href="#qr_block"/><use x="216" y="86" xlink:href="#qr_block"/><use x="229" y="86" xlink:href="#qr_block"/><use x="242" y="86" xlink:href="#qr_block"/><use x="255" y="86" xlink:href="#qr_block"/><use x="268" y="86" xlink:href="#qr_block"/><use x="307" y="86" xlink:href="#qr_block"/><use x="385" y="86" xlink:href="#qr_block"/><use x="21" y="99" xlink:href="#qr_block"/><use x="34" y="99" xlink:href="#qr_block"/><use x="47" y="99" xlink:href="#qr_block"/><use x="60" y="99" xlink:href="#qr_block"/><use x="73" y="99" xlink:href="#qr_block"/><use x="86" y="99" xlink:href="#qr_block"/><use x="99" y="99" xlink:href="#qr_block"/><use x="125" y="99" xlink:href="#qr_block"/><use x="151" y="99" xlink:href="#qr_block"/><use x="177" y="99" xlink:href="#qr_block"/><use x="203" y="99" xlink:href="#qr_block"/><use x="229" y="99" xlink:href="#qr_block"/><use x="255" y="99" xlink:href="#qr_block"/><use x="281" y="99" xlink:href="#qr_block"/><use x="307" y="99" xlink:href="#qr_block"/><use x="320" y="99" xlink:href="#qr_block"/><use x="333" y="99" xlink:href="#qr_block"/><use x="346" y="99" xlink:href="#qr_block"/><use x="359" y="99" xlink:href="#qr_block"/><use x="372" y="99" xlink:href="#qr_block"/><use x="385" y="99" xlink:href="#qr_block"/><use x="151" y="112" xlink:href="#qr_block"/><use x="177" y="112" xlink:href="#qr_block"/><use x="216" y="112" xlink:href="#qr_block"/><use x="242" y="112" xlink:href="#qr_block"/><use x="268" y="112" xlink:href="#qr_block"/><use x="21" y="125" xlink:href="#qr_block"/><use x="34" y="125" xlink:href="#qr_block"/><use x="47" y="125" xlink:href="#qr_block"/><use x="60" y="125" xlink:href="#qr_block"/><use x="99" y="125" xlink:href="#qr_block"/><use x="125" y="125" xlink:href="#qr_block"/><use x="151" y="125" xlink:href="#qr_block"/><use x="164" y="125" xlink:href="#qr_block"/><use x="177" y="125" xlink:href="#qr_block"/><use x="190" y="125" xlink:href="#qr_block"/><use x="229" y="125" xlink:href="#qr_block"/><use x="242" y="125" xlink:href="#qr_block"/><use x="268" y="125" xlink:href="#qr_block"/><use x="294" y="125" xlink:href="#qr_block"/><use x="333" y="125" xlink:href="#qr_block"/><use x="346" y="125" xlink:href="#qr_block"/><use x="359" y="125" xlink:href="#qr_block"/><use x="385" y="125" xlink:href="#qr_block"/><use x="21" y="138" xlink:href="#qr_block"/><use x="60" y="138" xlink:href="#qr_block"/><use x="86" y="138" xlink:href="#qr_block"/><use x="151" y="138" xlink:href="#qr_block"/><use x="177" y="138" xlink:href="#qr_block"/><use x="190" y="138" xlink:href="#qr_block"/><use x="203" y="138" xlink:href="#qr_block"/><use x="229" y="138" xlink:href="#qr_block"/><use x="268" y="138" xlink:href="#qr_block"/><use x="307" y="138" xlink:href="#qr_block"/><use x="320" y="138" xlink:href="#qr_block"/><use x="333" y="138" xlink:href="#qr_block"/><use x="346" y="138" xlink:href="#qr_block"/><use x="372" y="138" xlink:href="#qr_block"/><use x="21" y="151" xlink:href="#qr_block"/><use x="34" y="151" xlink:href="#qr_block"/><use x="47" y="151" xlink:href="#qr_block"/><use x="60" y="151" xlink:href="#qr_block"/><use x="86" y="151" xlink:href="#qr_block"/><use x="99" y="151" xlink:href="#qr_block"/><use x="112" y="151" xlink:href="#qr_block"/><use x="125" y="151" xlink:href="#qr_block"/><use x="138" y="151" xlink:href="#qr_block"/><use x="151" y="151" xlink:href="#qr_block"/><use x="164" y="151" xlink:href="#qr_block"/><use x="177" y="151" xlink:href="#qr_block"/><use x="190" y="151" xlink:href="#qr_block"/><use x="229" y="151" xlink:href="#qr_block"/><use x="255" y="151" xlink:href="#qr_block"/><use x="333" y="151" xlink:href="#qr_block"/><use x="346" y="151" xlink:href="#qr_block"/><use x="372" y="151" xlink:href="#qr_block"/><use x="34" y="164" xlink:href="#qr_block"/><use x="60" y="164" xlink:href="#qr_block"/><use x="86" y="164" xlink:href="#qr_block"/><use x="112" y="164" xlink:href="#qr_block"/><use x="138" y="164" xlink:href="#qr_block"/><use x="151" y="164" xlink:href="#qr_block"/><use x="216" y="164" xlink:href="#qr_block"/><use x="229" y="164" xlink:href="#qr_block"/><use x="242" y="164" xlink:href="#qr_block"/><use x="281" y="164" xlink:href="#qr_block"/><use x="320" y="164" xlink:href="#qr_block"/><use x="372" y="164" xlink:href="#qr_block"/><use x="60" y="177" xlink:href="#qr_block"/><use x="99" y="177" xlink:href="#qr_block"/><use x="125" y="177" xlink:href="#qr_block"/><use x="138" y="177" xlink:href="#qr_block"/><use x="151" y="177" xlink:href="#qr_block"/><use x="177" y="177" xlink:href="#qr_block"/><use x="203" y="177" xlink:href="#qr_block"/><use x="216" y="177" xlink:href="#qr_block"/><use x="242" y="177" xlink:href="#qr_block"/><use x="281" y="177" xlink:href="#qr_block"/><use x="307" y="177" xlink:href="#qr_block"/><use x="320" y="177" xlink:href="#qr_block"/><use x="21" y="190" xlink:href="#qr_block"/><use x="34" y="190" xlink:href="#qr_block"/><use x="86" y="190" xlink:href="#qr_block"/><use x="112" y="190" xlink:href="#qr_block"/><use x="138" y="190" xlink:href="#qr_block"/><use x="164" y="190" xlink:href="#qr_block"/><use x="177" y="190" xlink:href="#qr_block"/><use x="203" y="190" xlink:href="#qr_block"/><use x="242" y="190" xlink:href="#qr_block"/><use x="255" y="190" xlink:href="#qr_block"/><use x="268" y="190" xlink:href="#qr_block"/><use x="307" y="190" xlink:href="#qr_block"/><use x="346" y="190" xlink:href="#qr_block"/><use x="359" y="190" xlink:href="#qr_block"/><use x="47" y="203" xlink:href="#qr_block"/><use x="73" y="203" xlink:href="#qr_block"/><use x="99" y="203" xlink:href="#qr_block"/><use x="112" y="203" xlink:href="#qr_block"/><use x="151" y="203" xlink:href="#qr_block"/><use x="164" y="203" xlink:href="#qr_block"/><use x="190" y="203" xlink:href="#qr_block"/><use x="216" y="203" xlink:href="#qr_block"/><use x="229" y="203" xlink:href="#qr_block"/><use x="242" y="203" xlink:href="#qr_block"/><use x="255" y="203" xlink:href="#qr_block"/><use x="268" y="203" xlink:href="#qr_block"/><use x="294" y="203" xlink:href="#qr_block"/><use x="307" y="203" xlink:href="#qr_block"/><use x="320" y="203" xlink:href="#qr_block"/><use x="333" y="203" xlink:href="#qr_block"/><use x="359" y="203" xlink:href="#qr_block"/><use x="21" y="216" xlink:href="#qr_block"/><use x="34" y="216" xlink:href="#qr_block"/><use x="47" y="216" xlink:href="#qr_block"/><use x="73" y="216" xlink:href="#qr_block"/><use x="112" y="216" xlink:href="#qr_block"/><use x="125" y="216" xlink:href="#qr_block"/><use x="138" y="216" xlink:href="#qr_block"/><use x="151" y="216" xlink:href="#qr_block"/><use x="164" y="216" xlink:href="#qr_block"/><use x="203" y="216" xlink:href="#qr_block"/><use x="229" y="216" xlink:href="#qr_block"/><use x="242" y="216" xlink:href="#qr_block"/><use x="255" y="216" xlink:href="#qr_block"/><use x="268" y="216" xlink:href="#qr_block"/><use x="281" y="216" xlink:href="#qr_block"/><use x="294" y="216" xlink:href="#qr_block"/><use x="307" y="216" xlink:href="#qr_block"/><use x="320" y="216" xlink:href="#qr_block"/><use x="333" y="216" xlink:href="#qr_block"/><use x="372" y="216" xlink:href="#qr_block"/><use x="385" y="216" xlink:href="#qr_block"/><use x="99" y="229" xlink:href="#qr_block"/><use x="112" y="229" xlink:href="#qr_block"/><use x="177" y="229" xlink:href="#qr_block"/><use x="203" y="229" xlink:href="#qr_block"/><use x="229" y="229" xlink:href="#qr_block"/><use x="242" y="229" xlink:href="#qr_block"/><use x="255" y="229" xlink:href="#qr_block"/><use x="307" y="229" xlink:href="#qr_block"/><use x="333" y="229" xlink:href="#qr_block"/><use x="359" y="229" xlink:href="#qr_block"/><use x="372" y="229" xlink:href="#qr_block"/><use x="47" y="242" xlink:href="#qr_block"/><use x="60" y="242" xlink:href="#qr_block"/><use x="73" y="242" xlink:href="#qr_block"/><use x="112" y="242" xlink:href="#qr_block"/><use x="125" y="242" xlink:href="#qr_block"/><use x="203" y="242" xlink:href="#qr_block"/><use x="216" y="242" xlink:href="#qr_block"/><use x="229" y="242" xlink:href="#qr_block"/><use x="255" y="242" xlink:href="#qr_block"/><use x="268" y="242" xlink:href="#qr_block"/><use x="294" y="242" xlink:href="#qr_block"/><use x="307" y="242" xlink:href="#qr_block"/><use x="320" y="242" xlink:href="#qr_block"/><use x="21" y="255" xlink:href="#qr_block"/><use x="60" y="255" xlink:href="#qr_block"/><use x="99" y="255" xlink:href="#qr_block"/><use x="112" y="255" xlink:href="#qr_block"/><use x="138" y="255" xlink:href="#qr_block"/><use x="151" y="255" xlink:href="#qr_block"/><use x="190" y="255" xlink:href="#qr_block"/><use x="203" y="255" xlink:href="#qr_block"/><use x="216" y="255" xlink:href="#qr_block"/><use x="229" y="255" xlink:href="#qr_block"/><use x="242" y="255" xlink:href="#qr_block"/><use x="255" y="255" xlink:href="#qr_block"/><use x="320" y="255" xlink:href="#qr_block"/><use x="346" y="255" xlink:href="#qr_block"/><use x="359" y="255" xlink:href="#qr_block"/><use x="372" y="255" xlink:href="#qr_block"/><use x="47" y="268" xlink:href="#qr_block"/><use x="73" y="268" xlink:href="#qr_block"/><use x="86" y="268" xlink:href="#qr_block"/><use x="164" y="268" xlink:href="#qr_block"/><use x="190" y="268" xlink:href="#qr_block"/><use x="203" y="268" xlink:href="#qr_block"/><use x="216" y="268" xlink:href="#qr_block"/><use x="229" y="268" xlink:href="#qr_block"/><use x="268" y="268" xlink:href="#qr_block"/><use x="307" y="268" xlink:href="#qr_block"/><use x="359" y="268" xlink:href="#qr_block"/><use x="385" y="268" xlink:href="#qr_block"/><use x="34" y="281" xlink:href="#qr_block"/><use x="73" y="281" xlink:href="#qr_block"/><use x="99" y="281" xlink:href="#qr_block"/><use x="112" y="281" xlink:href="#qr_block"/><use x="190" y="281" xlink:href="#qr_block"/><use x="203" y="281" xlink:href="#qr_block"/><use x="242" y="281" xlink:href="#qr_block"/><use x="255" y="281" xlink:href="#qr_block"/><use x="268" y="281" xlink:href="#qr_block"/><use x="281" y="281" xlink:href="#qr_block"/><use x="294" y="281" xlink:href="#qr_block"/><use x="307" y="281" xlink:href="#qr_block"/><use x="320" y="281" xlink:href="#qr_block"/><use x="333" y="281" xlink:href="#qr_block"/><use x="359" y="281" xlink:href="#qr_block"/><use x="385" y="281" xlink:href="#qr_block"/><use x="125" y="294" xlink:href="#qr_block"/><use x="138" y="294" xlink:href="#qr_block"/><use x="151" y="294" xlink:href="#qr_block"/><use x="229" y="294" xlink:href="#qr_block"/><use x="281" y="294" xlink:href="#qr_block"/><use x="333" y="294" xlink:href="#qr_block"/><use x="372" y="294" xlink:href="#qr_block"/><use x="21" y="307" xlink:href="#qr_block"/><use x="34" y="307" xlink:href="#qr_block"/><use x="47" y="307" xlink:href="#qr_block"/><use x="60" y="307" xlink:href="#qr_block"/><use x="73" y="307" xlink:href="#qr_block"/><use x="86" y="307" xlink:href="#qr_block"/><use x="99" y="307" xlink:href="#qr_block"/><use x="151" y="307" xlink:href="#qr_block"/><use x="203" y="307" xlink:href="#qr_block"/><use x="216" y="307" xlink:href="#qr_block"/><use x="255" y="307" xlink:href="#qr_block"/><use x="281" y="307" xlink:href="#qr_block"/><use x="307" y="307" xlink:href="#qr_block"/><use x="333" y="307" xlink:href="#qr_block"/><use x="346" y="307" xlink:href="#qr_block"/><use x="372" y="307" xlink:href="#qr_block"/><use x="21" y="320" xlink:href="#qr_block"/><use x="99" y="320" xlink:href="#qr_block"/><use x="164" y="320" xlink:href="#qr_block"/><use x="177" y="320" xlink:href="#qr_block"/><use x="190" y="320" xlink:href="#qr_block"/><use x="203" y="320" xlink:href="#qr_block"/><use x="216" y="320" xlink:href="#qr_block"/><use x="242" y="320" xlink:href="#qr_block"/><use x="281" y="320" xlink:href="#qr_block"/><use x="333" y="320" xlink:href="#qr_block"/><use x="346" y="320" xlink:href="#qr_block"/><use x="359" y="320" xlink:href="#qr_block"/><use x="21" y="333" xlink:href="#qr_block"/><use x="47" y="333" xlink:href="#qr_block"/><use x="60" y="333" xlink:href="#qr_block"/><use x="73" y="333" xlink:href="#qr_block"/><use x="99" y="333" xlink:href="#qr_block"/><use x="138" y="333" xlink:href="#qr_block"/><use x="151" y="333" xlink:href="#qr_block"/><use x="164" y="333" xlink:href="#qr_block"/><use x="216" y="333" xlink:href="#qr_block"/><use x="242" y="333" xlink:href="#qr_block"/><use x="281" y="333" xlink:href="#qr_block"/><use x="294" y="333" xlink:href="#qr_block"/><use x="307" y="333" xlink:href="#qr_block"/><use x="320" y="333" xlink:href="#qr_block"/><use x="333" y="333" xlink:href="#qr_block"/><use x="359" y="333" xlink:href="#qr_block"/><use x="372" y="333" xlink:href="#qr_block"/><use x="385" y="333" xlink:href="#qr_block"/><use x="21" y="346" xlink:href="#qr_block"/><use x="47" y="346" xlink:href="#qr_block"/><use x="60" y="346" xlink:href="#qr_block"/><use x="73" y="346" xlink:href="#qr_block"/><use x="99" y="346" xlink:href="#qr_block"/><use x="125" y="346" xlink:href="#qr_block"/><use x="164" y="346" xlink:href="#qr_block"/><use x="190" y="346" xlink:href="#qr_block"/><use x="242" y="346" xlink:href="#qr_block"/><use x="268" y="346" xlink:href="#qr_block"/><use x="294" y="346" xlink:href="#qr_block"/><use x="307" y="346" xlink:href="#qr_block"/><use x="333" y="346" xlink:href="#qr_block"/><use x="359" y="346" xlink:href="#qr_block"/><use x="372" y="346" xlink:href="#qr_block"/><use x="21" y="359" xlink:href="#qr_block"/><use x="47" y="359" xlink:href="#qr_block"/><use x="60" y="359" xlink:href="#qr_block"/><use x="73" y="359" xlink:href="#qr_block"/><use x="99" y="359" xlink:href="#qr_block"/><use x="125" y="359" xlink:href="#qr_block"/><use x="138" y="359" xlink:href="#qr_block"/><use x="151" y="359" xlink:href="#qr_block"/><use x="177" y="359" xlink:href="#qr_block"/><use x="203" y="359" xlink:href="#qr_block"/><use x="242" y="359" xlink:href="#qr_block"/><use x="255" y="359" xlink:href="#qr_block"/><use x="320" y="359" xlink:href="#qr_block"/><use x="333" y="359" xlink:href="#qr_block"/><use x="346" y="359" xlink:href="#qr_block"/><use x="359" y="359" xlink:href="#qr_block"/><use x="385" y="359" xlink:href="#qr_block"/><use x="21" y="372" xlink:href="#qr_block"/><use x="99" y="372" xlink:href="#qr_block"/><use x="125" y="372" xlink:href="#qr_block"/><use x="177" y="372" xlink:href="#qr_block"/><use x="190" y="372" xlink:href="#qr_block"/><use x="229" y="372" xlink:href="#qr_block"/><use x="255" y="372" xlink:href="#qr_block"/><use x="268" y="372" xlink:href="#qr_block"/><use x="281" y="372" xlink:href="#qr_block"/><use x="346" y="372" xlink:href="#qr_block"/><use x="359" y="372" xlink:href="#qr_block"/><use x="385" y="372" xlink:href="#qr_block"/><use x="21" y="385" xlink:href="#qr_block"/><use x="34" y="385" xlink:href="#qr_block"/><use x="47" y="385" xlink:href="#qr_block"/><use x="60" y="385" xlink:href="#qr_block"/><use x="73" y="385" xlink:href="#qr_block"/><use x="86" y="385" xlink:href="#qr_block"/><use x="99" y="385" xlink:href="#qr_block"/><use x="125" y="385" xlink:href="#qr_block"/><use x="164" y="385" xlink:href="#qr_block"/><use x="229" y="385" xlink:href="#qr_block"/><use x="242" y="385" xlink:href="#qr_block"/><use x="281" y="385" xlink:href="#qr_block"/><use x="294" y="385" xlink:href="#qr_block"/><use x="307" y="385" xlink:href="#qr_block"/><use x="320" y="385" xlink:href="#qr_block"/><use x="346" y="385" xlink:href="#qr_block"/><use x="372" y="385" xlink:href="#qr_block"/></svg>
